<?xml version="1.0" standalone="no"?><svg xmlns="http://www.w3.org/2000/svg" viewBox="0 0 1440 320"><path fill="#00cba9" fill-opacity="1" d="M0,32L30,32C60,32,120,32,180,42.7C240,53,300,75,360,80C420,85,480,75,540,58.7C600,43,660,21,720,32C780,43,840,85,900,106.7C960,128,1020,128,1080,112C1140,96,1200,64,1260,48C1320,32,1380,32,1410,32L1440,32L1440,320L1410,320C1380,320,1320,320,1260,320C1200,320,1140,320,1080,320C1020,320,960,320,900,320C840,320,780,320,720,320C660,320,600,320,540,320C480,320,420,320,360,320C300,320,240,320,180,320C120,320,60,320,30,320L0,320Z"></path></svg>